<svg xmlns="http://www.w3.org/2000/svg" viewBox="0 0 64 64">
  <rect width="64" height="64" rx="14" fill="#f5f7f1"/>
  <path d="M10 48 24 12h8l14 36h-9l-3-8H22l-3 8h-9Zm15-16h7l-3.5-10L25 32Z" fill="#078b3e"/>
  <path d="M43 15h7v33h-7z" fill="#4aa4df"/>
  <path d="M48 15h8c4 0 7 3 7 7s-3 7-7 7h-8v-7h7c1 0 2-.8 2-2s-1-2-2-2h-7v-3Z" transform="translate(-4)" fill="#f28b22"/>
  <circle cx="49" cy="46" r="8" fill="#1c3139"/>
  <path d="M49 40 54 44l-2 6h-6l-2-6 5-4Z" fill="#f5f7f1"/>
  <path d="M49 40v-2M54 44l2-2M52 50l1 3M46 50l-1 3M44 44l-2-2" stroke="#f5f7f1" stroke-width="1.5" stroke-linecap="round"/>
</svg>
